<mxfile host="app.diagrams.net" modified="2023-11-29T20:17:14.483Z" agent="Mozilla/5.0 (Windows NT 10.0; Win64; x64) AppleWebKit/537.36 (KHTML, like Gecko) Chrome/119.0.0.0 Safari/537.36 Edg/119.0.0.0" etag="eiA4el1LwX-dp29GNiHw" version="22.1.5" type="github">
  <diagram id="vJS-br1JLr-Ke6bYh74I" name="Página-1">
    <mxGraphModel dx="2896" dy="1704" grid="1" gridSize="10" guides="1" tooltips="1" connect="1" arrows="1" fold="1" page="1" pageScale="1" pageWidth="827" pageHeight="1169" math="0" shadow="0">
      <root>
        <mxCell id="0" />
        <mxCell id="1" parent="0" />
        <mxCell id="JaIq0eNm3wRwpOb2lZA0-6" value="Region" style="points=[[0,0],[0.25,0],[0.5,0],[0.75,0],[1,0],[1,0.25],[1,0.5],[1,0.75],[1,1],[0.75,1],[0.5,1],[0.25,1],[0,1],[0,0.75],[0,0.5],[0,0.25]];outlineConnect=0;gradientColor=none;html=1;whiteSpace=wrap;fontSize=12;fontStyle=0;container=1;pointerEvents=0;collapsible=0;recursiveResize=0;shape=mxgraph.aws4.group;grIcon=mxgraph.aws4.group_region;strokeColor=#00A4A6;fillColor=none;verticalAlign=top;align=left;spacingLeft=30;fontColor=#147EBA;dashed=1;" vertex="1" parent="1">
          <mxGeometry x="-790" y="-420" width="1190" height="670" as="geometry" />
        </mxCell>
        <mxCell id="JaIq0eNm3wRwpOb2lZA0-14" value="Usuários&lt;br&gt;" style="sketch=0;outlineConnect=0;gradientColor=none;fontColor=#545B64;strokeColor=none;fillColor=#161717;dashed=0;verticalLabelPosition=bottom;verticalAlign=top;align=center;html=1;fontSize=12;fontStyle=0;aspect=fixed;shape=mxgraph.aws4.illustration_users;pointerEvents=1;strokeWidth=6;" vertex="1" parent="1">
          <mxGeometry x="-800" y="-549" width="60" height="60" as="geometry" />
        </mxCell>
        <object label="AWS Cloud" id="JaIq0eNm3wRwpOb2lZA0-15">
          <mxCell style="points=[[0,0],[0.25,0],[0.5,0],[0.75,0],[1,0],[1,0.25],[1,0.5],[1,0.75],[1,1],[0.75,1],[0.5,1],[0.25,1],[0,1],[0,0.75],[0,0.5],[0,0.25]];outlineConnect=0;gradientColor=none;html=1;whiteSpace=wrap;fontSize=12;fontStyle=0;container=1;pointerEvents=0;collapsible=0;recursiveResize=0;shape=mxgraph.aws4.group;grIcon=mxgraph.aws4.group_aws_cloud_alt;strokeColor=#232F3E;fillColor=none;verticalAlign=top;align=left;spacingLeft=30;fontColor=#232F3E;dashed=0;" vertex="1" parent="1">
            <mxGeometry x="-840" y="-450" width="1290" height="760" as="geometry" />
          </mxCell>
        </object>
        <UserObject label="VPC" id="JaIq0eNm3wRwpOb2lZA0-7">
          <mxCell style="points=[[0,0],[0.25,0],[0.5,0],[0.75,0],[1,0],[1,0.25],[1,0.5],[1,0.75],[1,1],[0.75,1],[0.5,1],[0.25,1],[0,1],[0,0.75],[0,0.5],[0,0.25]];outlineConnect=0;gradientColor=none;html=1;whiteSpace=wrap;fontSize=12;fontStyle=0;container=1;pointerEvents=0;collapsible=0;recursiveResize=0;shape=mxgraph.aws4.group;grIcon=mxgraph.aws4.group_vpc2;strokeColor=#8C4FFF;fillColor=none;verticalAlign=top;align=left;spacingLeft=30;fontColor=#AAB7B8;dashed=0;" vertex="1" parent="JaIq0eNm3wRwpOb2lZA0-15">
            <mxGeometry x="97.5" y="65" width="1092.5" height="595" as="geometry" />
          </mxCell>
        </UserObject>
        <mxCell id="JaIq0eNm3wRwpOb2lZA0-19" value="&lt;b&gt;&lt;font style=&quot;font-size: 13px;&quot;&gt;AZ us-east-1a&lt;/font&gt;&lt;/b&gt;" style="fillColor=none;strokeColor=#147EBA;dashed=1;verticalAlign=top;fontStyle=0;fontColor=#147EBA;whiteSpace=wrap;html=1;align=center;" vertex="1" parent="JaIq0eNm3wRwpOb2lZA0-7">
          <mxGeometry x="40" y="55" width="230" height="505" as="geometry" />
        </mxCell>
        <mxCell id="JaIq0eNm3wRwpOb2lZA0-17" value="Public subnet" style="points=[[0,0],[0.25,0],[0.5,0],[0.75,0],[1,0],[1,0.25],[1,0.5],[1,0.75],[1,1],[0.75,1],[0.5,1],[0.25,1],[0,1],[0,0.75],[0,0.5],[0,0.25]];outlineConnect=0;gradientColor=none;html=1;whiteSpace=wrap;fontSize=12;fontStyle=0;container=1;pointerEvents=0;collapsible=0;recursiveResize=0;shape=mxgraph.aws4.group;grIcon=mxgraph.aws4.group_security_group;grStroke=0;strokeColor=#7AA116;fillColor=#F2F6E8;verticalAlign=top;align=left;spacingLeft=30;fontColor=#248814;dashed=0;" vertex="1" parent="JaIq0eNm3wRwpOb2lZA0-7">
          <mxGeometry x="75" y="115" width="195" height="170" as="geometry" />
        </mxCell>
        <mxCell id="JaIq0eNm3wRwpOb2lZA0-12" value="Private subnet" style="points=[[0,0],[0.25,0],[0.5,0],[0.75,0],[1,0],[1,0.25],[1,0.5],[1,0.75],[1,1],[0.75,1],[0.5,1],[0.25,1],[0,1],[0,0.75],[0,0.5],[0,0.25]];outlineConnect=0;gradientColor=none;html=1;whiteSpace=wrap;fontSize=12;fontStyle=0;container=1;pointerEvents=0;collapsible=0;recursiveResize=0;shape=mxgraph.aws4.group;grIcon=mxgraph.aws4.group_security_group;grStroke=0;strokeColor=#00A4A6;fillColor=#E6F6F7;verticalAlign=top;align=left;spacingLeft=30;fontColor=#147EBA;dashed=0;" vertex="1" parent="JaIq0eNm3wRwpOb2lZA0-7">
          <mxGeometry x="80" y="300" width="160" height="240" as="geometry" />
        </mxCell>
        <mxCell id="JaIq0eNm3wRwpOb2lZA0-82" value="Amazon RDS&lt;br&gt;Aurora DB&lt;br&gt;(multi-AZ)" style="sketch=0;points=[[0,0,0],[0.25,0,0],[0.5,0,0],[0.75,0,0],[1,0,0],[0,1,0],[0.25,1,0],[0.5,1,0],[0.75,1,0],[1,1,0],[0,0.25,0],[0,0.5,0],[0,0.75,0],[1,0.25,0],[1,0.5,0],[1,0.75,0]];outlineConnect=0;fontColor=#232F3E;fillColor=#C925D1;strokeColor=#ffffff;dashed=0;verticalLabelPosition=bottom;verticalAlign=top;align=center;html=1;fontSize=12;fontStyle=0;aspect=fixed;shape=mxgraph.aws4.resourceIcon;resIcon=mxgraph.aws4.rds;" vertex="1" parent="JaIq0eNm3wRwpOb2lZA0-12">
          <mxGeometry x="36" y="55" width="78" height="78" as="geometry" />
        </mxCell>
        <mxCell id="JaIq0eNm3wRwpOb2lZA0-20" value="&lt;font style=&quot;font-size: 13px;&quot;&gt;&lt;b&gt;AZ us-east-1b&lt;/b&gt;&lt;/font&gt;" style="fillColor=none;strokeColor=#147EBA;dashed=1;verticalAlign=top;fontStyle=0;fontColor=#147EBA;whiteSpace=wrap;html=1;" vertex="1" parent="JaIq0eNm3wRwpOb2lZA0-7">
          <mxGeometry x="470" y="55" width="230" height="505" as="geometry" />
        </mxCell>
        <mxCell id="JaIq0eNm3wRwpOb2lZA0-21" value="Public subnet" style="points=[[0,0],[0.25,0],[0.5,0],[0.75,0],[1,0],[1,0.25],[1,0.5],[1,0.75],[1,1],[0.75,1],[0.5,1],[0.25,1],[0,1],[0,0.75],[0,0.5],[0,0.25]];outlineConnect=0;gradientColor=none;html=1;whiteSpace=wrap;fontSize=12;fontStyle=0;container=1;pointerEvents=0;collapsible=0;recursiveResize=0;shape=mxgraph.aws4.group;grIcon=mxgraph.aws4.group_security_group;grStroke=0;strokeColor=#7AA116;fillColor=#F2F6E8;verticalAlign=top;align=left;spacingLeft=30;fontColor=#248814;dashed=0;" vertex="1" parent="JaIq0eNm3wRwpOb2lZA0-7">
          <mxGeometry x="505" y="115" width="160" height="150" as="geometry" />
        </mxCell>
        <mxCell id="JaIq0eNm3wRwpOb2lZA0-39" value="" style="sketch=0;points=[[0,0,0],[0.25,0,0],[0.5,0,0],[0.75,0,0],[1,0,0],[0,1,0],[0.25,1,0],[0.5,1,0],[0.75,1,0],[1,1,0],[0,0.25,0],[0,0.5,0],[0,0.75,0],[1,0.25,0],[1,0.5,0],[1,0.75,0]];outlineConnect=0;fontColor=#232F3E;fillColor=#ED7100;strokeColor=#ffffff;dashed=0;verticalLabelPosition=bottom;verticalAlign=top;align=center;html=1;fontSize=12;fontStyle=0;aspect=fixed;shape=mxgraph.aws4.resourceIcon;resIcon=mxgraph.aws4.ec2;" vertex="1" parent="JaIq0eNm3wRwpOb2lZA0-21">
          <mxGeometry x="57.38" y="37.25" width="45.25" height="45.25" as="geometry" />
        </mxCell>
        <mxCell id="JaIq0eNm3wRwpOb2lZA0-22" value="Private subnet" style="points=[[0,0],[0.25,0],[0.5,0],[0.75,0],[1,0],[1,0.25],[1,0.5],[1,0.75],[1,1],[0.75,1],[0.5,1],[0.25,1],[0,1],[0,0.75],[0,0.5],[0,0.25]];outlineConnect=0;gradientColor=none;html=1;whiteSpace=wrap;fontSize=12;fontStyle=0;container=1;pointerEvents=0;collapsible=0;recursiveResize=0;shape=mxgraph.aws4.group;grIcon=mxgraph.aws4.group_security_group;grStroke=0;strokeColor=#00A4A6;fillColor=#E6F6F7;verticalAlign=top;align=left;spacingLeft=30;fontColor=#147EBA;dashed=0;" vertex="1" parent="JaIq0eNm3wRwpOb2lZA0-7">
          <mxGeometry x="505" y="300" width="160" height="240" as="geometry" />
        </mxCell>
        <mxCell id="JaIq0eNm3wRwpOb2lZA0-83" value="Amazon RDS&lt;br&gt;Aurora DB&lt;br&gt;(multi-AZ)" style="sketch=0;points=[[0,0,0],[0.25,0,0],[0.5,0,0],[0.75,0,0],[1,0,0],[0,1,0],[0.25,1,0],[0.5,1,0],[0.75,1,0],[1,1,0],[0,0.25,0],[0,0.5,0],[0,0.75,0],[1,0.25,0],[1,0.5,0],[1,0.75,0]];outlineConnect=0;fontColor=#232F3E;fillColor=#C925D1;strokeColor=#ffffff;dashed=0;verticalLabelPosition=bottom;verticalAlign=top;align=center;html=1;fontSize=12;fontStyle=0;aspect=fixed;shape=mxgraph.aws4.resourceIcon;resIcon=mxgraph.aws4.rds;" vertex="1" parent="JaIq0eNm3wRwpOb2lZA0-22">
          <mxGeometry x="41" y="55" width="78" height="78" as="geometry" />
        </mxCell>
        <mxCell id="JaIq0eNm3wRwpOb2lZA0-33" value="" style="sketch=0;points=[[0,0,0],[0.25,0,0],[0.5,0,0],[0.75,0,0],[1,0,0],[0,1,0],[0.25,1,0],[0.5,1,0],[0.75,1,0],[1,1,0],[0,0.25,0],[0,0.5,0],[0,0.75,0],[1,0.25,0],[1,0.5,0],[1,0.75,0]];outlineConnect=0;fontColor=#232F3E;fillColor=#8C4FFF;strokeColor=#ffffff;dashed=0;verticalLabelPosition=bottom;verticalAlign=top;align=center;html=1;fontSize=12;fontStyle=0;aspect=fixed;shape=mxgraph.aws4.resourceIcon;resIcon=mxgraph.aws4.elastic_load_balancing;" vertex="1" parent="JaIq0eNm3wRwpOb2lZA0-7">
          <mxGeometry x="341.25" width="70" height="70" as="geometry" />
        </mxCell>
        <mxCell id="JaIq0eNm3wRwpOb2lZA0-31" value="Elastic Load Balance" style="text;strokeColor=none;align=center;fillColor=none;html=1;verticalAlign=middle;whiteSpace=wrap;rounded=0;" vertex="1" parent="JaIq0eNm3wRwpOb2lZA0-7">
          <mxGeometry x="298.5" y="70" width="160" height="30" as="geometry" />
        </mxCell>
        <mxCell id="JaIq0eNm3wRwpOb2lZA0-60" value="Auto Scaling Group&lt;br&gt;" style="sketch=0;points=[[0,0,0],[0.25,0,0],[0.5,0,0],[0.75,0,0],[1,0,0],[0,1,0],[0.25,1,0],[0.5,1,0],[0.75,1,0],[1,1,0],[0,0.25,0],[0,0.5,0],[0,0.75,0],[1,0.25,0],[1,0.5,0],[1,0.75,0]];outlineConnect=0;fontColor=#232F3E;fillColor=#ED7100;strokeColor=#ffffff;dashed=0;verticalLabelPosition=bottom;verticalAlign=top;align=center;html=1;fontSize=12;fontStyle=0;aspect=fixed;shape=mxgraph.aws4.resourceIcon;resIcon=mxgraph.aws4.auto_scaling2;" vertex="1" parent="JaIq0eNm3wRwpOb2lZA0-7">
          <mxGeometry x="354" y="149.75" width="49" height="49" as="geometry" />
        </mxCell>
        <mxCell id="JaIq0eNm3wRwpOb2lZA0-38" value="" style="sketch=0;points=[[0,0,0],[0.25,0,0],[0.5,0,0],[0.75,0,0],[1,0,0],[0,1,0],[0.25,1,0],[0.5,1,0],[0.75,1,0],[1,1,0],[0,0.25,0],[0,0.5,0],[0,0.75,0],[1,0.25,0],[1,0.5,0],[1,0.75,0]];outlineConnect=0;fontColor=#232F3E;fillColor=#ED7100;strokeColor=#ffffff;dashed=0;verticalLabelPosition=bottom;verticalAlign=top;align=center;html=1;fontSize=12;fontStyle=0;aspect=fixed;shape=mxgraph.aws4.resourceIcon;resIcon=mxgraph.aws4.ec2;" vertex="1" parent="JaIq0eNm3wRwpOb2lZA0-7">
          <mxGeometry x="129.25" y="148.5" width="51.5" height="51.5" as="geometry" />
        </mxCell>
        <mxCell id="JaIq0eNm3wRwpOb2lZA0-64" value="" style="edgeStyle=orthogonalEdgeStyle;html=1;endArrow=block;elbow=vertical;startArrow=block;startFill=1;endFill=1;strokeColor=#545B64;rounded=0;exitX=0.5;exitY=0;exitDx=0;exitDy=0;exitPerimeter=0;entryX=0;entryY=0.5;entryDx=0;entryDy=0;entryPerimeter=0;" edge="1" parent="JaIq0eNm3wRwpOb2lZA0-7" source="JaIq0eNm3wRwpOb2lZA0-38" target="JaIq0eNm3wRwpOb2lZA0-33">
          <mxGeometry width="100" relative="1" as="geometry">
            <mxPoint x="242.5" y="35" as="sourcePoint" />
            <mxPoint x="342.5" y="35" as="targetPoint" />
          </mxGeometry>
        </mxCell>
        <mxCell id="JaIq0eNm3wRwpOb2lZA0-66" value="" style="edgeStyle=orthogonalEdgeStyle;html=1;endArrow=block;elbow=vertical;startArrow=block;startFill=1;endFill=1;strokeColor=#545B64;rounded=0;exitX=1;exitY=0.5;exitDx=0;exitDy=0;exitPerimeter=0;entryX=0;entryY=0.5;entryDx=0;entryDy=0;entryPerimeter=0;" edge="1" parent="JaIq0eNm3wRwpOb2lZA0-7" source="JaIq0eNm3wRwpOb2lZA0-38" target="JaIq0eNm3wRwpOb2lZA0-60">
          <mxGeometry width="100" relative="1" as="geometry">
            <mxPoint x="192.5" y="175" as="sourcePoint" />
            <mxPoint x="352.5" y="176" as="targetPoint" />
          </mxGeometry>
        </mxCell>
        <mxCell id="JaIq0eNm3wRwpOb2lZA0-67" value="" style="edgeStyle=orthogonalEdgeStyle;html=1;endArrow=block;elbow=vertical;startArrow=block;startFill=1;endFill=1;strokeColor=#545B64;rounded=0;exitX=1;exitY=0.5;exitDx=0;exitDy=0;exitPerimeter=0;" edge="1" parent="JaIq0eNm3wRwpOb2lZA0-7" source="JaIq0eNm3wRwpOb2lZA0-60" target="JaIq0eNm3wRwpOb2lZA0-39">
          <mxGeometry width="100" relative="1" as="geometry">
            <mxPoint x="382.5" y="155" as="sourcePoint" />
            <mxPoint x="482.5" y="155" as="targetPoint" />
          </mxGeometry>
        </mxCell>
        <mxCell id="JaIq0eNm3wRwpOb2lZA0-93" value="&lt;font style=&quot;font-size: 13px;&quot;&gt;&lt;b&gt;AZ us-east-1c&lt;/b&gt;&lt;/font&gt;" style="fillColor=none;strokeColor=#147EBA;dashed=1;verticalAlign=top;fontStyle=0;fontColor=#147EBA;whiteSpace=wrap;html=1;" vertex="1" parent="JaIq0eNm3wRwpOb2lZA0-7">
          <mxGeometry x="812.5" y="55" width="230" height="505" as="geometry" />
        </mxCell>
        <mxCell id="JaIq0eNm3wRwpOb2lZA0-94" value="Public subnet" style="points=[[0,0],[0.25,0],[0.5,0],[0.75,0],[1,0],[1,0.25],[1,0.5],[1,0.75],[1,1],[0.75,1],[0.5,1],[0.25,1],[0,1],[0,0.75],[0,0.5],[0,0.25]];outlineConnect=0;gradientColor=none;html=1;whiteSpace=wrap;fontSize=12;fontStyle=0;container=1;pointerEvents=0;collapsible=0;recursiveResize=0;shape=mxgraph.aws4.group;grIcon=mxgraph.aws4.group_security_group;grStroke=0;strokeColor=#7AA116;fillColor=#F2F6E8;verticalAlign=top;align=left;spacingLeft=30;fontColor=#248814;dashed=0;" vertex="1" parent="JaIq0eNm3wRwpOb2lZA0-7">
          <mxGeometry x="862.5" y="115" width="160" height="150" as="geometry" />
        </mxCell>
        <mxCell id="JaIq0eNm3wRwpOb2lZA0-96" value="Web Instance" style="text;strokeColor=none;align=center;fillColor=none;html=1;verticalAlign=middle;whiteSpace=wrap;rounded=0;" vertex="1" parent="JaIq0eNm3wRwpOb2lZA0-94">
          <mxGeometry x="-5.5" y="80" width="160" height="30" as="geometry" />
        </mxCell>
        <mxCell id="JaIq0eNm3wRwpOb2lZA0-95" value="" style="sketch=0;points=[[0,0,0],[0.25,0,0],[0.5,0,0],[0.75,0,0],[1,0,0],[0,1,0],[0.25,1,0],[0.5,1,0],[0.75,1,0],[1,1,0],[0,0.25,0],[0,0.5,0],[0,0.75,0],[1,0.25,0],[1,0.5,0],[1,0.75,0]];outlineConnect=0;fontColor=#232F3E;fillColor=#ED7100;strokeColor=#ffffff;dashed=0;verticalLabelPosition=bottom;verticalAlign=top;align=center;html=1;fontSize=12;fontStyle=0;aspect=fixed;shape=mxgraph.aws4.resourceIcon;resIcon=mxgraph.aws4.ec2;" vertex="1" parent="JaIq0eNm3wRwpOb2lZA0-7">
          <mxGeometry x="912.5" y="148.5" width="49" height="49" as="geometry" />
        </mxCell>
        <mxCell id="JaIq0eNm3wRwpOb2lZA0-97" value="Private subnet" style="points=[[0,0],[0.25,0],[0.5,0],[0.75,0],[1,0],[1,0.25],[1,0.5],[1,0.75],[1,1],[0.75,1],[0.5,1],[0.25,1],[0,1],[0,0.75],[0,0.5],[0,0.25]];outlineConnect=0;gradientColor=none;html=1;whiteSpace=wrap;fontSize=12;fontStyle=0;container=1;pointerEvents=0;collapsible=0;recursiveResize=0;shape=mxgraph.aws4.group;grIcon=mxgraph.aws4.group_security_group;grStroke=0;strokeColor=#00A4A6;fillColor=#E6F6F7;verticalAlign=top;align=left;spacingLeft=30;fontColor=#147EBA;dashed=0;" vertex="1" parent="JaIq0eNm3wRwpOb2lZA0-7">
          <mxGeometry x="862.5" y="300" width="160" height="240" as="geometry" />
        </mxCell>
        <mxCell id="JaIq0eNm3wRwpOb2lZA0-98" value="Amazon RDS&lt;br&gt;Aurora DB&lt;br&gt;(multi-AZ)" style="sketch=0;points=[[0,0,0],[0.25,0,0],[0.5,0,0],[0.75,0,0],[1,0,0],[0,1,0],[0.25,1,0],[0.5,1,0],[0.75,1,0],[1,1,0],[0,0.25,0],[0,0.5,0],[0,0.75,0],[1,0.25,0],[1,0.5,0],[1,0.75,0]];outlineConnect=0;fontColor=#232F3E;fillColor=#C925D1;strokeColor=#ffffff;dashed=0;verticalLabelPosition=bottom;verticalAlign=top;align=center;html=1;fontSize=12;fontStyle=0;aspect=fixed;shape=mxgraph.aws4.resourceIcon;resIcon=mxgraph.aws4.rds;" vertex="1" parent="JaIq0eNm3wRwpOb2lZA0-97">
          <mxGeometry x="41" y="55" width="78" height="78" as="geometry" />
        </mxCell>
        <mxCell id="JaIq0eNm3wRwpOb2lZA0-104" value="" style="edgeStyle=orthogonalEdgeStyle;html=1;endArrow=block;elbow=vertical;startArrow=block;startFill=1;endFill=1;strokeColor=#545B64;rounded=0;entryX=0.5;entryY=0;entryDx=0;entryDy=0;entryPerimeter=0;" edge="1" parent="JaIq0eNm3wRwpOb2lZA0-7" source="JaIq0eNm3wRwpOb2lZA0-33" target="JaIq0eNm3wRwpOb2lZA0-95">
          <mxGeometry width="100" relative="1" as="geometry">
            <mxPoint x="542.5" y="125" as="sourcePoint" />
            <mxPoint x="642.5" y="125" as="targetPoint" />
          </mxGeometry>
        </mxCell>
        <mxCell id="JaIq0eNm3wRwpOb2lZA0-110" value="" style="edgeStyle=orthogonalEdgeStyle;html=1;endArrow=block;elbow=vertical;startArrow=block;startFill=1;endFill=1;strokeColor=#545B64;rounded=0;" edge="1" parent="JaIq0eNm3wRwpOb2lZA0-7" source="JaIq0eNm3wRwpOb2lZA0-60" target="JaIq0eNm3wRwpOb2lZA0-95">
          <mxGeometry width="100" relative="1" as="geometry">
            <mxPoint x="542.5" y="225" as="sourcePoint" />
            <mxPoint x="642.5" y="225" as="targetPoint" />
            <Array as="points">
              <mxPoint x="379" y="285" />
              <mxPoint x="783" y="285" />
              <mxPoint x="783" y="173" />
            </Array>
          </mxGeometry>
        </mxCell>
        <mxCell id="JaIq0eNm3wRwpOb2lZA0-32" value="Web Instance" style="text;strokeColor=none;align=center;fillColor=none;html=1;verticalAlign=middle;whiteSpace=wrap;rounded=0;" vertex="1" parent="JaIq0eNm3wRwpOb2lZA0-7">
          <mxGeometry x="512.5" y="197.5" width="160" height="27.5" as="geometry" />
        </mxCell>
        <mxCell id="JaIq0eNm3wRwpOb2lZA0-114" value="" style="edgeStyle=orthogonalEdgeStyle;html=1;endArrow=block;elbow=vertical;startArrow=block;startFill=1;endFill=1;strokeColor=#545B64;rounded=0;entryX=0.5;entryY=0;entryDx=0;entryDy=0;entryPerimeter=0;" edge="1" parent="JaIq0eNm3wRwpOb2lZA0-7" source="JaIq0eNm3wRwpOb2lZA0-39" target="JaIq0eNm3wRwpOb2lZA0-83">
          <mxGeometry width="100" relative="1" as="geometry">
            <mxPoint x="542.5" y="225" as="sourcePoint" />
            <mxPoint x="642.5" y="225" as="targetPoint" />
          </mxGeometry>
        </mxCell>
        <mxCell id="JaIq0eNm3wRwpOb2lZA0-59" value="Web Instance" style="text;strokeColor=none;align=center;fillColor=none;html=1;verticalAlign=middle;whiteSpace=wrap;rounded=0;" vertex="1" parent="JaIq0eNm3wRwpOb2lZA0-7">
          <mxGeometry x="75" y="200" width="160" height="30" as="geometry" />
        </mxCell>
        <mxCell id="JaIq0eNm3wRwpOb2lZA0-116" value="" style="edgeStyle=orthogonalEdgeStyle;html=1;endArrow=block;elbow=vertical;startArrow=block;startFill=1;endFill=1;strokeColor=#545B64;rounded=0;entryX=0.5;entryY=0;entryDx=0;entryDy=0;entryPerimeter=0;" edge="1" parent="JaIq0eNm3wRwpOb2lZA0-7" source="JaIq0eNm3wRwpOb2lZA0-38" target="JaIq0eNm3wRwpOb2lZA0-82">
          <mxGeometry width="100" relative="1" as="geometry">
            <mxPoint x="542.5" y="225" as="sourcePoint" />
            <mxPoint x="642.5" y="225" as="targetPoint" />
          </mxGeometry>
        </mxCell>
        <mxCell id="JaIq0eNm3wRwpOb2lZA0-117" value="" style="edgeStyle=orthogonalEdgeStyle;html=1;endArrow=block;elbow=vertical;startArrow=block;startFill=1;endFill=1;strokeColor=#545B64;rounded=0;" edge="1" parent="JaIq0eNm3wRwpOb2lZA0-7" source="JaIq0eNm3wRwpOb2lZA0-98" target="JaIq0eNm3wRwpOb2lZA0-95">
          <mxGeometry width="100" relative="1" as="geometry">
            <mxPoint x="542.5" y="225" as="sourcePoint" />
            <mxPoint x="642.5" y="225" as="targetPoint" />
            <Array as="points">
              <mxPoint x="943" y="235" />
              <mxPoint x="943" y="235" />
            </Array>
          </mxGeometry>
        </mxCell>
        <mxCell id="JaIq0eNm3wRwpOb2lZA0-69" value="" style="sketch=0;points=[[0,0,0],[0.25,0,0],[0.5,0,0],[0.75,0,0],[1,0,0],[0,1,0],[0.25,1,0],[0.5,1,0],[0.75,1,0],[1,1,0],[0,0.25,0],[0,0.5,0],[0,0.75,0],[1,0.25,0],[1,0.5,0],[1,0.75,0]];outlineConnect=0;fontColor=#232F3E;fillColor=#8C4FFF;strokeColor=#ffffff;dashed=0;verticalLabelPosition=bottom;verticalAlign=top;align=center;html=1;fontSize=12;fontStyle=0;aspect=fixed;shape=mxgraph.aws4.resourceIcon;resIcon=mxgraph.aws4.route_53;" vertex="1" parent="1">
          <mxGeometry x="-401.25" y="-554" width="70" height="70" as="geometry" />
        </mxCell>
        <mxCell id="JaIq0eNm3wRwpOb2lZA0-70" value="" style="edgeStyle=orthogonalEdgeStyle;html=1;endArrow=block;elbow=vertical;startArrow=block;startFill=1;endFill=1;strokeColor=#545B64;rounded=0;entryX=0;entryY=0.5;entryDx=0;entryDy=0;entryPerimeter=0;" edge="1" parent="1" source="JaIq0eNm3wRwpOb2lZA0-14" target="JaIq0eNm3wRwpOb2lZA0-69">
          <mxGeometry width="100" relative="1" as="geometry">
            <mxPoint x="-360" y="-400" as="sourcePoint" />
            <mxPoint x="-410" y="-510" as="targetPoint" />
          </mxGeometry>
        </mxCell>
        <mxCell id="JaIq0eNm3wRwpOb2lZA0-71" value="Amazon Cloud Front" style="sketch=0;points=[[0,0,0],[0.25,0,0],[0.5,0,0],[0.75,0,0],[1,0,0],[0,1,0],[0.25,1,0],[0.5,1,0],[0.75,1,0],[1,1,0],[0,0.25,0],[0,0.5,0],[0,0.75,0],[1,0.25,0],[1,0.5,0],[1,0.75,0]];outlineConnect=0;fontColor=#232F3E;fillColor=#8C4FFF;strokeColor=#ffffff;dashed=0;verticalLabelPosition=bottom;verticalAlign=top;align=center;html=1;fontSize=12;fontStyle=0;aspect=fixed;shape=mxgraph.aws4.resourceIcon;resIcon=mxgraph.aws4.cloudfront;" vertex="1" parent="1">
          <mxGeometry x="80" y="-553" width="68" height="68" as="geometry" />
        </mxCell>
        <mxCell id="JaIq0eNm3wRwpOb2lZA0-72" value="" style="edgeStyle=orthogonalEdgeStyle;html=1;endArrow=block;elbow=vertical;startArrow=block;startFill=1;endFill=1;strokeColor=#545B64;rounded=0;entryX=0;entryY=0.5;entryDx=0;entryDy=0;entryPerimeter=0;" edge="1" parent="1" source="JaIq0eNm3wRwpOb2lZA0-90" target="JaIq0eNm3wRwpOb2lZA0-71">
          <mxGeometry width="100" relative="1" as="geometry">
            <mxPoint x="-170" y="-510" as="sourcePoint" />
            <mxPoint x="-70" y="-510" as="targetPoint" />
          </mxGeometry>
        </mxCell>
        <mxCell id="JaIq0eNm3wRwpOb2lZA0-76" value="" style="edgeStyle=orthogonalEdgeStyle;html=1;endArrow=block;elbow=vertical;startArrow=block;startFill=1;endFill=1;strokeColor=#545B64;rounded=0;entryX=1;entryY=0.5;entryDx=0;entryDy=0;entryPerimeter=0;" edge="1" parent="1" target="JaIq0eNm3wRwpOb2lZA0-71">
          <mxGeometry width="100" relative="1" as="geometry">
            <mxPoint x="320" y="-519" as="sourcePoint" />
            <mxPoint x="150" y="-500" as="targetPoint" />
          </mxGeometry>
        </mxCell>
        <mxCell id="JaIq0eNm3wRwpOb2lZA0-77" value="" style="edgeStyle=orthogonalEdgeStyle;html=1;endArrow=block;elbow=vertical;startArrow=block;startFill=1;endFill=1;strokeColor=#545B64;rounded=0;exitX=0.5;exitY=1;exitDx=0;exitDy=0;exitPerimeter=0;entryX=0.5;entryY=0;entryDx=0;entryDy=0;entryPerimeter=0;" edge="1" parent="1" source="JaIq0eNm3wRwpOb2lZA0-69" target="JaIq0eNm3wRwpOb2lZA0-33">
          <mxGeometry width="100" relative="1" as="geometry">
            <mxPoint x="-340" y="-330" as="sourcePoint" />
            <mxPoint x="-366" y="-400" as="targetPoint" />
          </mxGeometry>
        </mxCell>
        <mxCell id="JaIq0eNm3wRwpOb2lZA0-91" value="" style="edgeStyle=orthogonalEdgeStyle;html=1;endArrow=block;elbow=vertical;startArrow=block;startFill=1;endFill=1;strokeColor=#545B64;rounded=0;entryX=0;entryY=0.5;entryDx=0;entryDy=0;entryPerimeter=0;" edge="1" parent="1" source="JaIq0eNm3wRwpOb2lZA0-69" target="JaIq0eNm3wRwpOb2lZA0-90">
          <mxGeometry width="100" relative="1" as="geometry">
            <mxPoint x="-331" y="-519" as="sourcePoint" />
            <mxPoint x="80" y="-519" as="targetPoint" />
          </mxGeometry>
        </mxCell>
        <mxCell id="JaIq0eNm3wRwpOb2lZA0-90" value="AWS WAF" style="sketch=0;points=[[0,0,0],[0.25,0,0],[0.5,0,0],[0.75,0,0],[1,0,0],[0,1,0],[0.25,1,0],[0.5,1,0],[0.75,1,0],[1,1,0],[0,0.25,0],[0,0.5,0],[0,0.75,0],[1,0.25,0],[1,0.5,0],[1,0.75,0]];outlineConnect=0;fontColor=#232F3E;fillColor=#DD344C;strokeColor=#ffffff;dashed=0;verticalLabelPosition=bottom;verticalAlign=top;align=center;html=1;fontSize=12;fontStyle=0;aspect=fixed;shape=mxgraph.aws4.resourceIcon;resIcon=mxgraph.aws4.waf;" vertex="1" parent="1">
          <mxGeometry x="-140" y="-552" width="66" height="66" as="geometry" />
        </mxCell>
        <mxCell id="JaIq0eNm3wRwpOb2lZA0-75" value="Amazon S3" style="sketch=0;outlineConnect=0;fontColor=#232F3E;gradientColor=none;strokeColor=#ffffff;fillColor=#26cb10;dashed=0;verticalLabelPosition=middle;verticalAlign=bottom;align=center;html=1;whiteSpace=wrap;fontSize=10;fontStyle=1;spacing=3;shape=mxgraph.aws4.productIcon;prIcon=mxgraph.aws4.s3;" vertex="1" parent="1">
          <mxGeometry x="320" y="-553" width="70" height="95" as="geometry" />
        </mxCell>
        <mxCell id="JaIq0eNm3wRwpOb2lZA0-107" value="" style="edgeStyle=orthogonalEdgeStyle;html=1;endArrow=block;elbow=vertical;startArrow=none;endFill=1;strokeColor=#545B64;rounded=0;entryX=0.5;entryY=0;entryDx=0;entryDy=0;entryPerimeter=0;" edge="1" parent="1" target="JaIq0eNm3wRwpOb2lZA0-39">
          <mxGeometry width="100" relative="1" as="geometry">
            <mxPoint x="-160" y="-350" as="sourcePoint" />
            <mxPoint x="-100" y="-160" as="targetPoint" />
            <Array as="points">
              <mxPoint x="-157" y="-350" />
              <mxPoint x="-157" y="-292" />
            </Array>
          </mxGeometry>
        </mxCell>
      </root>
    </mxGraphModel>
  </diagram>
</mxfile>
